<svg xmlns="http://www.w3.org/2000/svg" viewBox="0 0 468.62 116"><defs><style>.cls-1{isolation:isolate;}.cls-2{fill:#6ad6e3;}</style></defs><g id="Layer_2" data-name="Layer 2"><g id="Layer_1-2" data-name="Layer 1"><g class="cls-1"><path class="cls-2" d="M205.16.1c.56,0,1-.08,1.4-.08h44.23A10.61,10.61,0,0,1,255,.48a4.82,4.82,0,0,0,1.53.1,7.29,7.29,0,0,1,3,.42,17.39,17.39,0,0,0,3.18.78,9.46,9.46,0,0,1,1.9.65,49,49,0,0,1,4.47,2.23,25.8,25.8,0,0,1,6.53,5.46,17.34,17.34,0,0,1,3.19,5.24,10.35,10.35,0,0,0,.68,1.43c.57,1,.69,2.25,1.16,3.28.59,1.29.17,2.74.93,3.94a1.29,1.29,0,0,1,.09.63,71.42,71.42,0,0,1-.05,10,9.41,9.41,0,0,1-.94,3.5c-.29.53,0,1.31-.61,1.75,0,1.19-.82,2-1.36,3a21.63,21.63,0,0,1-5.06,6.17,18.72,18.72,0,0,1-4.52,2.87c-1.15.48-2.24,1.08-3.37,1.6a2.33,2.33,0,0,1-.76.11c-.79.1-.79.09-1.4.91.07.08.14.23.24.24a21.22,21.22,0,0,1,8.8,3.77,23.76,23.76,0,0,1,4.48,4.21A22.75,22.75,0,0,1,281,69a31.92,31.92,0,0,1,2.41,14.25,21.35,21.35,0,0,1-.41,2.5,2,2,0,0,0-.08.64,8.08,8.08,0,0,1-.69,3.85,32.37,32.37,0,0,1-2.05,5.21,24.3,24.3,0,0,1-5.44,7.39,28.72,28.72,0,0,1-5.57,4.17,27,27,0,0,1-4.13,2c-1.67.52-3.23,1.57-5.09,1.4-1.56,1-3.45.18-5.1.93a6.28,6.28,0,0,1-2.43.14H207.24c-.3,0-.6,0-.9,0-1,0-1.26-.34-1.3-1.34v-.64q0-53.76,0-107.51C205.05,1.35,205.12.76,205.16.1Zm15.72,78.68V94.37c0,.39,0,.77,0,1.16a.92.92,0,0,0,.94,1c.26,0,.52,0,.78,0,9.28-.06,18.55-.11,27.83-.2a7.77,7.77,0,0,0,1.62-.33c.29-.07.57-.19.86-.23a6.91,6.91,0,0,0,2.68-.52c1.34-.7,2.81-1.13,4.18-1.81a13.28,13.28,0,0,0,6.63-7.67,7.44,7.44,0,0,0,.65-2.55c.1-2.83.06-5.66.07-8.5a1.22,1.22,0,0,0-.08-.5c-.68-1.52-.82-3.24-1.71-4.69-.11-.18-.13-.42-.25-.58-1.3-1.67-2.51-3.45-4.39-4.55-1.52-.9-3-2-4.84-2a2.64,2.64,0,0,1-.61-.17,14.57,14.57,0,0,0-1.45-.35,13,13,0,0,1-1.67-.11,17.24,17.24,0,0,0-5.11-.49q-12,0-24,0c-.34,0-.69,0-1,0-1,0-1.09.17-1.14,1.15,0,.34,0,.68,0,1Zm0-47.9c0,5,0,10,0,14.94,0,1.4.07,1.45,1.46,1.46h.51c7.43,0,14.87,0,22.3,0,2,0,4,.33,6-.47a1,1,0,0,1,.38,0,15.92,15.92,0,0,0,6-1.2,11.75,11.75,0,0,0,6.71-6.42,10.49,10.49,0,0,0,1.17-3.68,4.58,4.58,0,0,1,.15-.49,9.35,9.35,0,0,0,.34-2.14c-.1-2,.16-4.05-.45-6.1a20.11,20.11,0,0,0-1.51-4.32,11.87,11.87,0,0,0-2-2.72,12.81,12.81,0,0,0-2.43-1.93,13.13,13.13,0,0,0-5.36-2c-.21,0-.48,0-.62-.14a2.79,2.79,0,0,0-1.84-.4c-1-.07-2-.15-2.94-.25s-1.87-.32-2.81-.32c-7.86,0-15.72,0-23.58,0-1.38,0-1.46.1-1.49,1.45,0,.3,0,.6,0,.9Z"/><path class="cls-2" d="M56,62.68c.25.53.49,1.1.78,1.64,1.87,3.54,3.76,7.07,5.62,10.61,1.11,2.1,2.15,4.24,3.25,6.34,1,1.93,2.09,3.82,3.11,5.75.93,1.76,1.8,3.54,2.73,5.3.83,1.56,1.7,3.09,2.54,4.65.72,1.31,1.42,2.64,2.11,4,1,2,2,4,3.08,5.92.66,1.24,1.41,2.45,2.08,3.69a2.12,2.12,0,0,1,.07.8H62.82L39,64.37c-.92-.23-21.65-.3-23.23,0v47H.2a9.27,9.27,0,0,1-.18-1c0-.34,0-.69,0-1V.11C.55.07,1,0,1.38,0H45.6c.77,0,1.55,0,2.32.06a7.74,7.74,0,0,1,1.23.27c.21.05.42.2.61.17,1.56-.19,3,.45,4.5.69A12,12,0,0,1,56.79,2C57.91,2.39,59,3,60.1,3.38a20.48,20.48,0,0,1,3.77,2.19,27.65,27.65,0,0,1,6.28,5.74,31.2,31.2,0,0,1,1.78,2.59,43.58,43.58,0,0,1,2.89,5.55,8.26,8.26,0,0,1,.55,1.79c.27,1.14.51,2.3.76,3.46.14.62.28,1.23.4,1.86a6.63,6.63,0,0,1,.19,1.25c0,2.88,0,5.76,0,8.64a7.13,7.13,0,0,1-.32,1.48c-.07.29-.27.59-.23.85.2,1.34-.45,2.52-.74,3.74a38.49,38.49,0,0,1-1.71,4.67,21,21,0,0,1-3.09,5.13,28.35,28.35,0,0,1-4.67,5,38.52,38.52,0,0,1-4.65,3.12,31.56,31.56,0,0,1-3.47,1.5ZM15.87,49.07c.46,0,.84.07,1.22.07,9.15,0,18.3,0,27.45,0,1.76,0,3.56.19,5.28-.58a21.49,21.49,0,0,0,3.51-1.71,15.71,15.71,0,0,0,5.35-7c.36-.84.37-1.75.7-2.53a7.16,7.16,0,0,0,.42-2.87c0-1.89.08-3.79,0-5.67a10.57,10.57,0,0,0-.67-3.45A25.18,25.18,0,0,0,57,21.21a14,14,0,0,0-5.87-5c-.77-.36-1.62-.27-2.29-.63a4.21,4.21,0,0,0-2.09-.41l-29.65,0c-.38,0-.76,0-1.21.06Z"/><path class="cls-2" d="M100.77.08h15.81V1.89q0,34,0,68.06c0,1.14.25,2.29.34,3.43.09,1.29.14,2.57.2,3.86a2.72,2.72,0,0,0,.43,1.84.83.83,0,0,1,.15.48,18.09,18.09,0,0,0,1.63,5.25,14.08,14.08,0,0,0,3,4.84,41.28,41.28,0,0,0,3.7,3.42,13.16,13.16,0,0,0,2.61,1.43c1.26.61,2.68.85,4,1.35,1.55.6,3.16.22,4.63.7a12.06,12.06,0,0,0,3.81.39,1.73,1.73,0,0,0,.76-.08,8.06,8.06,0,0,1,3.67-.48A1.81,1.81,0,0,0,147,96a.87.87,0,0,1,.47-.19,21.32,21.32,0,0,0,2.79-.63c1-.38,1.86-1,2.83-1.45a14.58,14.58,0,0,0,3.73-2.91,13.52,13.52,0,0,0,3.79-5.2c.45-1.17,1-2.28,1.53-3.42a1.13,1.13,0,0,0,.1-.37,11.44,11.44,0,0,1,.51-2.32,24,24,0,0,0,.7-5.33q.07-36.09,0-72.18V.11h15.72c0,.57.07,1.15.07,1.73q0,25.77,0,51.56c0,7.82,0,15.64-.06,23.46a4,4,0,0,1-.41,2.37.75.75,0,0,0-.09.37,13,13,0,0,1-.65,4.28,26,26,0,0,0-1,3.75,22.6,22.6,0,0,1-1.27,3.51,27.43,27.43,0,0,1-2.57,5.14,25.83,25.83,0,0,1-3.88,5,36,36,0,0,1-6.06,5.18,72.73,72.73,0,0,1-7.57,3.73c-.92.44-2.1.31-3,.74-1.43.66-3.07.17-4.44,1a1,1,0,0,1-.38.08c-2.26.21-4.52.5-6.79.6a39.9,39.9,0,0,1-4.36-.29c-1-.07-2-.12-3-.24-.8-.1-1.58-.3-2.37-.45-.12,0-.25-.13-.37-.11-1.44.22-2.75-.45-4.13-.66a13.72,13.72,0,0,1-3.56-1.15,47.68,47.68,0,0,1-5.73-2.84,30.75,30.75,0,0,1-6-4.8,34.25,34.25,0,0,1-4.89-6.39,35.57,35.57,0,0,1-2.46-5.18c-.25-.71-.59-1.38-.9-2.07a2.63,2.63,0,0,1-.15-.35,12.46,12.46,0,0,0-.67-3c-.7-1.39-.2-3-1-4.32a1,1,0,0,1-.09-.38c-.22-2.55-.59-5.1-.61-7.66-.07-10.91,0-21.83,0-32.74V.08Z"/><path class="cls-2" d="M306.36.1c.66,0,1.09-.08,1.51-.08H321c1.39,0,1.51.11,1.52,1.56,0,2.79,0,5.59,0,8.38q0,49.55,0,99.09c0,2.71-.48,2.38-2.34,2.38-4,0-8,0-12,0-1.47,0-1.88-.15-1.88-1.94q0-36.27,0-72.55V.1Z"/><path class="cls-2" d="M363.76,105.05C376,89.64,388,74.47,400.07,59.19c-.88-1.2-1.8-2.45-2.7-3.7s-1.86-2.56-2.79-3.84c-.61-.85-1.24-1.69-1.87-2.53-1.16-1.58-2.31-3.17-3.5-4.73-1.38-1.8-2.81-3.57-4.18-5.38s-2.5-3.38-3.74-5.07c-1.05-1.42-2.11-2.83-3.15-4.26-1.36-1.86-2.7-3.74-4.06-5.6-.7-.95-1.44-1.87-2.15-2.82-2.09-2.79-4.18-5.57-6.23-8.39-.34-.48-1-.82-.84-1.69.3,0,.63-.08,1-.08,2.28,0,4.56,0,6.83,0a2,2,0,0,0,1.69-.7,2.62,2.62,0,0,1,2.35-1,3.21,3.21,0,0,1,3,3.82A3.27,3.27,0,0,1,379,14.8c-.9,1.19-2.07.9-3.22,1-.9.05-1.35-.59-1.8-1.18a6.32,6.32,0,0,1-.56-1.19,11.24,11.24,0,0,0-4.74-.06,6,6,0,0,0,.41,1.17c.52.77,1.09,1.5,1.66,2.22,1.48,1.88,3.08,3.67,4.42,5.64,1.65,2.42,3.48,4.7,5.25,7,2.65,3.49,5.2,7,7.81,10.55,1.54,2.1,3.1,4.19,4.66,6.27s2.92,3.86,4.37,5.79c1.6,2.15,3.18,4.3,4.77,6.45a.94.94,0,0,1,0,1.27c-1.16,1.45-2.29,2.92-3.43,4.39s-2.24,2.92-3.37,4.37c-.67.86-1.36,1.71-2.05,2.55-1.18,1.46-2.39,2.9-3.57,4.36-.76.94-1.49,1.91-2.24,2.87-1.77,2.28-3.53,4.57-5.31,6.84-1,1.28-2.07,2.51-3.07,3.79s-2.11,2.81-3.19,4.2-2.37,2.93-3.55,4.41c-1,1.2-1.9,2.42-2.85,3.62-.52.65-1.05,1.29-1.69,2.07a9.33,9.33,0,0,0,1.22.16c2.32,0,4.64,0,7,0a1.86,1.86,0,0,0,1.61-.81c1.38-1.74,2.75-3.48,4.25-5.12,1.26-1.39,2.29-3,3.46-4.46s2.39-2.89,3.59-4.34,2.29-2.75,3.4-4.16a1.61,1.61,0,0,0,.31-1.44,4.23,4.23,0,0,1-.2-2.24,3.53,3.53,0,0,1,2.37-2.52A3.22,3.22,0,0,1,398,79.52a3.48,3.48,0,0,1-1.26,5,3.15,3.15,0,0,1-1.27.11,1.43,1.43,0,0,0-1.29.64c-1.19,1.56-2.48,3-3.7,4.58-1.36,1.7-2.85,3.29-4.08,5.11-.89,1.31-2,2.43-3.05,3.66-1.49,1.81-3,3.6-4.42,5.47a3.07,3.07,0,0,1-2.75,1.41c-3.18-.06-6.36,0-9.54,0-.52,0-1,0-1.55,0A8,8,0,0,1,363.76,105.05Z"/><path class="cls-2" d="M421,98.39Q414.51,90,408.1,81.67c-.93-.16-1.22.58-1.6,1.07-1.56,2-3.08,4.05-4.61,6.08l-2.48,3.31L396.48,96c-1.46,1.94-2.9,3.89-4.38,5.82-1.62,2.13-3.28,4.24-4.9,6.37-1.43,1.87-2.82,3.76-4.24,5.62a1.68,1.68,0,0,1-.8.5,3.91,3.91,0,0,1-1,0H346.89a1,1,0,0,1,.23-1.14c1.27-1.55,2.51-3.14,3.76-4.71,1.71-2.15,3.45-4.29,5.14-6.47,1.06-1.35,2-2.76,3.06-4.12.86-1.14,1.76-2.25,2.63-3.38,1.28-1.64,2.54-3.31,3.84-4.94.91-1.14,1.92-2.21,2.83-3.36s2-2.61,2.95-3.91c1.18-1.53,2.39-3,3.57-4.58,1-1.26,1.91-2.53,2.88-3.78.12-.16.29-.29.41-.45.52-.7,1-1.46,1.57-2.11a.88.88,0,0,0,.12-1.25c-1.11-1.53.69-4.18,2.37-4.2,1.18,0,2.37-.16,3.12,1.1,1.19,2,.78,3.5-.94,4.61a2.67,2.67,0,0,1-2.06.56,1.07,1.07,0,0,0-1.18.57c-.55.84-1.16,1.64-1.78,2.43-1.64,2.11-3.31,4.2-5,6.3s-3.55,4.43-5.29,6.66c-1.27,1.62-2.48,3.27-3.73,4.9-1.77,2.31-3.52,4.64-5.33,6.92-1.06,1.35-2.22,2.63-3.31,4-.66.8-1.26,1.66-1.89,2.49-1.29,1.69-2.6,3.36-3.88,5-.3.39-.12.78.38.8.69,0,1.37,0,2.06,0h26.69c.72,0,1.49.12,2-.54s.9-1.07,1.32-1.64c1.46-2,2.87-4,4.35-6s3-3.9,4.53-5.86c1.8-2.37,3.56-4.77,5.37-7.14,1.24-1.63,2.56-3.2,3.79-4.83,1.46-1.94,2.86-3.92,4.28-5.87.45-.61.89-1.21,1.37-1.79a3.17,3.17,0,0,1,.69-.45c1.06,1.35,2.1,2.67,3.12,4s2.18,2.86,3.27,4.29,2.13,2.8,3.2,4.19c1.38,1.8,2.8,3.55,4.12,5.38a2.21,2.21,0,0,0,2,1,3.41,3.41,0,0,1,3.24,3.71A3.33,3.33,0,0,1,424,103.3a3,3,0,0,1-3-1.27A3.46,3.46,0,0,1,421,98.39Z"/><path class="cls-2" d="M352.37,4.65a3.69,3.69,0,0,0,.28.95c1.42,1.87,2.89,3.71,4.3,5.59.75,1,1.41,2.08,2.15,3.1s1.61,2.16,2.42,3.24c1.94,2.64,3.87,5.28,5.82,7.9,1.35,1.83,2.73,3.63,4.09,5.44l2.64,3.55c.25.33.49.67.74,1a1.8,1.8,0,0,0,1.89.77,2.38,2.38,0,0,1,2.31,1,3.29,3.29,0,0,1-.73,4.76c-2.14,1.22-4,.45-4.71-1.94a1.92,1.92,0,0,1,0-1.67,1.56,1.56,0,0,0-.34-1.74c-1.39-1.68-2.63-3.48-3.94-5.23-2.17-2.92-4.37-5.82-6.52-8.76-1.37-1.86-2.65-3.79-4-5.65s-2.75-3.57-4.1-5.38S352,8,350.71,6.13c-.67-.91-1.37-1.81-2-2.73a4.34,4.34,0,0,1-.35-.91c.44-.05.76-.13,1.08-.13q16.56,0,33.13,0a1.85,1.85,0,0,1,1.61.82c1.45,2,2.89,4,4.37,6s3,4,4.51,6c1.79,2.43,3.52,4.9,5.32,7.33,1.95,2.63,3.94,5.23,5.91,7.85.93,1.23,1.84,2.49,2.78,3.72.43.56.73.56,1.16,0l5.3-6.85a3.49,3.49,0,0,1,.78-.8c.6-.38.44-.87.26-1.34-.86-2.14-.45-2.62.67-3.84a3,3,0,0,1,4.54.32c1.42,1.82.74,3.94-1.22,5.13a2.2,2.2,0,0,1-1.13.12,1.48,1.48,0,0,0-1.34.53c-1.24,1.58-2.53,3.12-3.78,4.69-1.5,1.89-3,3.81-4.5,5.7-.06.09-.22.1-.39.16-.69-.87-1.43-1.71-2.07-2.61-1.29-1.81-2.49-3.67-3.79-5.46-1.18-1.62-2.47-3.17-3.67-4.78-.92-1.24-1.74-2.55-2.66-3.78s-1.78-2.2-2.66-3.32c-.63-.78-1.24-1.58-1.82-2.4-1.32-1.88-2.59-3.79-3.92-5.67-.65-.92-1.38-1.78-2.07-2.67-.53-.7-1.1-1.37-1.59-2.09a1,1,0,0,0-.95-.48H352.37Z"/><path class="cls-2" d="M434.67,112h30.11a13.62,13.62,0,0,0-.91-1.49c-.94-1.17-2-2.28-2.89-3.46-1.87-2.41-3.71-4.86-5.56-7.28q-1.32-1.75-2.66-3.49c-.94-1.22-1.91-2.42-2.85-3.65-1.06-1.41-2.08-2.84-3.14-4.24s-2-2.51-3-3.78l-3-3.88c-.67-.86-1.37-1.7-2-2.56l-5-6.42c-.95-1.23-1.88-2.48-2.82-3.71-.82-1.07-1.65-2.14-2.46-3.21a1.75,1.75,0,0,0-1.76-.7,2.65,2.65,0,0,1-2.85-1.62A3.05,3.05,0,0,1,425,58.41a3.42,3.42,0,0,1,4.72,1.34,3.85,3.85,0,0,1,.07,2.4,1.64,1.64,0,0,0,.34,1.59q1.58,2.13,3.19,4.23c1.12,1.46,2.27,2.89,3.4,4.35s2.18,2.85,3.28,4.27c1.69,2.18,3.37,4.37,5.07,6.55,2.21,2.83,4.45,5.66,6.64,8.51,1.54,2,3,4,4.54,6,1,1.27,2,2.5,3,3.76s2,2.7,3,4,2.06,2.5,3.06,3.78,1.94,2.53,2.87,3.82a5.41,5.41,0,0,1,.45,1.17c-.74,0-1.28.09-1.82.09H436.12c-.43,0-.86,0-1.29,0a1,1,0,0,0-1,.45,3.31,3.31,0,0,1-1.19.87,2.89,2.89,0,0,1-3.94-1.33c-.41-.78-.86-1.53-.48-2.39a3.9,3.9,0,0,1,1.93-2.1A3.34,3.34,0,0,1,434.67,112Z"/><path class="cls-2" d="M412.89,58.85l3.55-4.92c1.15-1.59,2.29-3.19,3.45-4.76,1.92-2.6,3.87-5.16,5.77-7.77,1.3-1.79,2.5-3.66,3.8-5.46s2.54-3.32,3.77-5c.54-.74,1-1.55,1.46-2.34a.82.82,0,0,0,0-.54c-.74-2.64.4-3.87,2.75-4.61a2.73,2.73,0,0,1,2,.59,3.1,3.1,0,0,1,.68,4.83,2.58,2.58,0,0,1-2.5.91c-1-.19-1.45.26-2,1-1.31,1.89-2.7,3.72-4,5.59s-2.76,4.11-4.34,6c-1.4,1.66-2.46,3.56-3.87,5.22-.8,1-1.44,2-2.18,3s-1.57,2-2.32,3.06-1.65,2.32-2.45,3.49c-.34.51-.85,1.05-.86,1.58s.52,1,.87,1.49c1.12,1.52,2.24,3,3.4,4.52,1.88,2.41,3.81,4.78,5.68,7.2,1.56,2,3,4.12,4.6,6.16,1.7,2.23,3.46,4.43,5.17,6.66,1.4,1.83,2.75,3.69,4.15,5.52,1,1.32,2.1,2.59,3.12,3.92.87,1.13,1.68,2.32,2.53,3.48.6.8,1.19,1.63,1.86,2.36a1.42,1.42,0,0,0,1,.24c2.05-.18,3,.48,3.87,2.3.53,1.09-.56,3.08-1.72,3.63a3.13,3.13,0,0,1-4.16-1.11,1.7,1.7,0,0,1-.37-1A5.48,5.48,0,0,0,444,99.28a35,35,0,0,1-2.89-3.62c-1.06-1.4-2-2.86-3.1-4.26-.86-1.12-1.82-2.16-2.69-3.28s-1.88-2.58-2.85-3.85c-1.68-2.2-3.39-4.38-5.08-6.57L424.61,74c-.65-.88-1.24-1.8-1.92-2.65-1.61-2-3.27-4-4.88-6-.91-1.16-1.73-2.4-2.63-3.57C414.43,60.75,413.64,59.79,412.89,58.85Z"/><path class="cls-2" d="M463,4.88c-1.16-.31-26.94-.44-31.71-.18-.11.16-.23.38-.37.58a3.29,3.29,0,0,1-4.84.35,3.33,3.33,0,0,1,.54-5.06,3.07,3.07,0,0,1,4.33.81,2.17,2.17,0,0,0,2,1q16.11,0,32.23,0h1.58c.24,1-.49,1.64-.93,2.26-1.46,2.07-3,4.05-4.57,6.08s-3.07,4.15-4.61,6.23l-4,5.33c-1.33,1.77-2.69,3.52-4,5.3-1.56,2.08-3.09,4.18-4.62,6.28-1.66,2.26-3.26,4.57-5,6.78a1.32,1.32,0,0,0-.13,1.66,3.65,3.65,0,0,1-.05,3.31,3,3,0,0,1-3,1.64,3.79,3.79,0,0,1-3-3.09,2.68,2.68,0,0,1,.75-2c.56-.66,1.12-1.47,2.27-1.36.88.08,1.28-.81,1.7-1.37,1.43-1.9,2.7-3.92,4.11-5.84.59-.8,1.25-1.55,1.84-2.38,1.22-1.75,2.67-3.34,3.94-5.06,1.45-1.95,2.78-4,4.22-5.94,1.24-1.69,2.57-3.31,3.84-5,.71-.93,1.36-1.9,2.06-2.84,1.62-2.19,3.26-4.36,4.88-6.55A11,11,0,0,0,463,4.88Z"/><path class="cls-2" d="M394.81,31.85l13.08,17.7a4.46,4.46,0,0,0,1.65-1.69,38,38,0,0,0,2.74-3.73c.88-1.52,2.07-2.8,3.06-4.23,1.28-1.86,2.6-3.69,3.92-5.52,1.15-1.59,2.41-3.1,3.45-4.75,1.16-1.83,2.71-3.39,3.71-5.34a14.68,14.68,0,0,1,1.42-1.77c1.29-1.74,2.59-3.49,3.84-5.27s2.33-3.46,3.53-5.18a2.88,2.88,0,0,1,2.66-1.4c2.14.1,4.3-.05,6.44.06a5.67,5.67,0,0,0,3.12-.94,3,3,0,0,1,4,1.15,3.21,3.21,0,0,1-1.26,4.61,4.37,4.37,0,0,1-2.86,0,2.33,2.33,0,0,1-1.67-2.08c0-.17,0-.34-.06-.58a6,6,0,0,0-.85-.14c-2.23,0-4.47,0-6.7,0a1.68,1.68,0,0,0-1.56.85q-1.94,2.78-3.88,5.54t-3.8,5.3c-.56.78-1.15,1.54-1.7,2.32-1.45,2-2.87,4.11-4.34,6.13-1.25,1.71-2.59,3.35-3.82,5.07-1.68,2.35-3.29,4.74-4.94,7.11-.58.82-1.19,1.62-1.78,2.42-1.15,1.55-2.3,3.1-3.46,4.63a6.8,6.8,0,0,1-.77.75c-1.12-1.41-2.23-2.71-3.23-4.08-1.29-1.76-2.49-3.58-3.76-5.35-.72-1-1.5-2-2.26-3s-1.59-2-2.35-3.08-1.5-2.21-2.3-3.28a1.88,1.88,0,0,0-1.66-.91,3.75,3.75,0,0,1-3.51-3,2.93,2.93,0,0,1,.86-2.31,2.9,2.9,0,0,1,2.67-1.07,2.64,2.64,0,0,1,2.45,1.25A4.23,4.23,0,0,1,394.81,31.85Z"/><path class="cls-2" d="M421,84.32c-.92-1.2-1.84-2.38-2.75-3.59s-2-2.68-3-4l-3.48-4.6-.7-.89a1.32,1.32,0,0,0-1.32-.6c-1.54.21-2.42-.8-3.18-1.86-.63-.86.09-3.3,1-3.87a3.34,3.34,0,0,1,1.94-.71,3.22,3.22,0,0,1,2.92,4.4,1.42,1.42,0,0,0,.29,1.62c1.52,1.9,3,3.85,4.43,5.78s3,3.86,4.38,5.84a1.91,1.91,0,0,0,2,1.05c1.7-.26,3.54,2,3.36,3.57a3.35,3.35,0,0,1-3,2.85,3,3,0,0,1-3-1.56A3.56,3.56,0,0,1,421,84.32Z"/></g></g></g></svg>